Results
version=1
nRows=12
nColumns=24
inDegrees=yes
endheader
time	pelvis_tilt	pelvis_list	pelvis_rotation	pelvis_tx	pelvis_ty	pelvis_tz	hip_flexion_r	hip_adduction_r	hip_rotation_r	knee_angle_r	ankle_angle_r	subtalar_angle_r	mtp_angle_r	hip_flexion_l	hip_adduction_l	hip_rotation_l	knee_angle_l	ankle_angle_l	subtalar_angle_l	mtp_angle_l	lumbar_extension	lumbar_bending	lumbar_rotation
      1.65333333	     -3.27187777	      7.10556817	     -5.64022221	      0.48865605	      1.01014490	      0.32757447	     24.28277446	     -9.86071613	      4.17978206	    -70.32186170	     -1.86662762	     -2.80185519	     10.18488601	      9.17608793	     11.83391213	      3.32164491	    -11.21000493	      1.99133056	    -18.47288465	     -5.34032153	    -10.15376026	     -2.99110458	     -0.78678606
      1.65750000	     -3.27216241	      6.95012271	     -5.44757287	      0.49311939	      1.01087281	      0.32717442	     24.71980304	     -9.64926210	      4.05892459	    -69.80091680	     -1.09276226	     -2.58526944	     10.11906907	      8.71735640	     11.72485754	      3.48313598	    -10.91385204	      1.98538598	    -18.37158055	     -5.38965753	    -10.21645474	     -2.78279786	     -0.97392879
      1.66166667	     -3.23728347	      6.83178149	     -5.26059658	      0.49764092	      1.01158910	      0.32673852	     25.11588217	     -9.50572589	      3.92479875	    -69.24736435	     -0.35103008	     -2.32795153	      9.98367800	      8.19880678	     11.65861909	      3.64016002	    -10.56131582	      1.97839706	    -18.27889094	     -5.47581300	    -10.26296297	     -2.56389562	     -1.28004620
      1.66583333	     -3.24556709	      6.68384802	     -5.07351883	      0.50209701	      1.01224162	      0.32636975	     25.53671468	     -9.30347997	      3.81071620	    -68.63441177	      0.34724317	     -2.13021031	      9.88984981	      7.74535983	     11.54783410	      3.79595120	    -10.25000306	      1.98562048	    -18.18048133	     -5.53297194	    -10.30012091	     -2.36469719	     -1.45271832
      1.67000000	     -3.23416611	      6.56571645	     -4.89089404	      0.50655010	      1.01285226	      0.32599076	     25.93570159	     -9.14186113	      3.70198823	    -67.99692159	      1.02915107	     -2.01941519	      9.34421851	      7.26101814	     11.47037414	      3.97075667	     -9.90672328	      1.95561339	    -18.16328463	     -5.81165695	    -10.33974771	     -2.15013766	     -1.83275394
      1.67416667	     -3.22729178	      6.43323519	     -4.70338760	      0.51101559	      1.01347055	      0.32564526	     26.31138037	     -8.96656302	      3.58319792	    -67.29260343	      1.65300073	     -1.87015805	      9.28344031	      6.79186049	     11.36681215	      4.08818357	     -9.58868989	      1.94869566	    -17.99090658	     -5.84243635	    -10.38063152	     -1.99481812	     -1.86550166
      1.67833333	     -3.19461526	      6.32385446	     -4.52966674	      0.51545990	      1.01404437	      0.32529487	     26.66107322	     -8.82230111	      3.47768048	    -66.56513781	      2.25590843	     -1.73407821	      9.18611966	      6.28757708	     11.28910933	      4.22045753	     -9.24329379	      1.95802710	    -17.85948207	     -5.88451181	    -10.45151205	     -1.82212997	     -2.05200196
      1.68250000	     -3.18592604	      6.23409416	     -4.35360085	      0.51989137	      1.01454026	      0.32495839	     27.02837864	     -8.69533889	      3.38120098	    -65.80400072	      2.81693058	     -1.67480836	      9.06030981	      5.81082206	     11.22718354	      4.35875802	     -8.89436226	      1.93836152	    -17.75160616	     -5.93252060	    -10.49074256	     -1.66497368	     -2.26045479
      1.68666667	     -3.17603880	      6.15604840	     -4.16797963	      0.52429513	      1.01499550	      0.32464376	     27.38167561	     -8.58173505	      3.28326149	    -65.00617412	      3.34827373	     -1.68938871	      8.81134035	      5.33804703	     11.17261339	      4.50050104	     -8.55007831	      1.87873373	    -17.65266540	     -6.01515207	    -10.53679736	     -1.53930758	     -2.51161664
      1.69083333	     -3.22498956	      6.07406510	     -4.00108339	      0.52870360	      1.01534747	      0.32436520	     27.78598503	     -8.44578999	      3.21225756	    -64.16286150	      3.81971266	     -1.75054999	      8.77244319	      4.93238500	     11.10319228	      4.60408623	     -8.21236444	      1.86731563	    -17.51880252	     -6.02644704	    -10.50887305	     -1.41152223	     -2.53905740
      1.69500000	     -3.17607048	      5.97954709	     -3.82316409	      0.53310729	      1.01580977	      0.32408731	     28.05340695	     -8.31936898	      3.11208462	    -63.26051734	      4.24443265	     -1.79453255	      8.63792718	      4.41354558	     11.02670549	      4.74924003	     -7.86376399	      1.86370900	    -17.41751669	     -6.05919647	    -10.59555816	     -1.26835519	     -2.77287395
      1.69916667	     -3.17458360	      5.90808394	     -3.64313138	      0.53749475	      1.01616644	      0.32382657	     28.36564358	     -8.20988482	      3.02645982	    -62.33183272	      4.63560612	     -1.93098071	      8.49315722	      3.95126150	     10.96669395	      4.88514443	     -7.51922616	      1.82688477	    -17.30896040	     -6.08944190	    -10.62785449	     -1.15344842	     -2.95187588
